# Blender v2.90.1 OBJ File: 'grassblock.blend'
# www.blender.org
o Cube
v 0.000000 1.000000 0.000000
v 0.000000 0.000000 0.000000
v 1.000000 1.000000 0.000000
v 1.000000 0.000000 0.000000
v -0.000000 1.000000 1.000000
v -0.000000 0.000000 1.000000
v 1.000000 1.000000 1.000000
v 1.000000 0.000000 1.000000
vt 0.000008 0.984383
vt 0.015617 0.999992
vt 0.000008 0.999992
vt 0.031258 0.984383
vt 0.046867 0.999992
vt 0.031258 0.999992
vt 0.015633 0.984383
vt 0.031242 0.984383
vt 0.031242 0.984383
vt 0.031242 0.999992
vt 0.015633 0.999992
vt 0.015617 0.984383
vt 0.046867 0.984383
vt 0.031242 0.999992
vt 0.015633 0.984383
vt 0.031242 0.999992
vt 0.015633 0.999992
vt 0.031242 0.984383
vt 0.015633 0.984383
vt 0.015633 0.984383
vt 0.031242 0.984383
vt 0.015633 0.999992
vt 0.031242 0.999992
vn 0.0000 1.0000 0.0000
vn 0.0000 -1.0000 0.0000
vn 0.0000 0.0000 -1.0000
vn 1.0000 0.0000 0.0000
vn 0.0000 0.0000 1.0000
vn -1.0000 0.0000 -0.0000
s off
f 5/1/1 3/2/1 1/3/1
f 2/4/2 8/5/2 6/6/2
f 4/7/3 2/8/3 3/2/3
f 4/9/4 3/10/4 7/11/4
f 5/1/1 7/12/1 3/2/1
f 2/4/2 4/13/2 8/5/2
f 2/8/3 1/14/3 3/2/3
f 7/11/4 8/15/4 4/9/4
f 7/16/5 5/17/5 8/18/5
f 6/19/5 8/18/5 5/17/5
f 2/20/6 6/21/6 1/22/6
f 6/21/6 5/23/6 1/22/6
